<svg width="251" height="76" viewBox="0 0 251 76" fill="none" xmlns="http://www.w3.org/2000/svg">
<path d="M19.117 75.5302C14.3605 75.5302 10.4894 71.6053 10.4894 66.783V66.106C5.02018 65.0335 0.878906 60.1503 0.878906 54.3011L0.881012 22.1316C0.881012 16.2824 5.02229 11.3992 10.484 10.3343V9.65736C10.4915 4.83499 14.3552 0.910156 19.1191 0.910156H229.901C235.438 0.910156 240.067 4.9643 241.042 10.2963C246.601 11.2851 250.833 16.2216 250.833 22.1316L250.83 54.3011C250.83 60.2188 246.592 65.1476 241.04 66.1364C240.065 71.4684 235.443 75.5226 229.899 75.5226H19.117V75.5302Z" fill="#FFF6C6"/>
<path d="M4.60742 52.8521C4.60742 58.2298 8.90624 62.5881 14.2104 62.5881V65.3264C14.2104 68.8937 17.0688 71.7917 20.5873 71.7917H221.32H228.417C233.429 71.7917 237.495 67.6691 237.495 62.5881C242.799 62.5881 247.098 58.2298 247.098 52.8521V23.5802C247.098 18.2026 242.799 13.8442 237.495 13.8442C237.495 8.76322 233.429 4.64062 228.417 4.64062H221.32H30.3853H20.5873C17.0688 4.64062 14.2104 7.53861 14.2104 11.106V13.8442C8.90624 13.8442 4.60742 18.2026 4.60742 23.5802V52.8521Z" stroke="#A66005" stroke-width="1.04092" stroke-miterlimit="10"/>
<g filter="url(#filter0_i_64_1906)">
<path d="M133.139 56.563L131.983 52.2453H126.438L125.294 56.563H121.094L126.037 39.1034H132.443L137.374 56.563H133.139ZM127.37 48.7062H131.039L129.199 41.8049L127.37 48.7062ZM138.692 39.4337C140.517 39.064 142.279 38.8792 143.978 38.8792C146.581 38.8792 148.519 39.4022 149.793 40.4482C151.075 41.4864 151.716 43.1104 151.716 45.3204C151.716 47.4203 151.091 49.0168 149.841 50.11C148.59 51.1953 146.77 51.738 144.379 51.738C144.166 51.738 143.871 51.7301 143.494 51.7144L143.01 51.7026V56.563H138.692V39.4337ZM144.426 48.3876C145.495 48.3876 146.278 48.1517 146.773 47.6798C147.269 47.2079 147.517 46.4333 147.517 45.3558C147.517 44.2705 147.261 43.4801 146.75 42.9846C146.247 42.4812 145.46 42.2296 144.39 42.2296C143.871 42.2296 143.411 42.2689 143.01 42.3475V48.2933C143.419 48.3562 143.891 48.3876 144.426 48.3876ZM163.661 56.563L159.308 49.5909H158.01V56.563H153.692V39.1034H158.01V45.7097H159.331L163.33 39.1034H167.837L162.717 47.5382L168.297 56.563H163.661Z" fill="#AA6703"/>
</g>
<g filter="url(#filter1_i_64_1906)">
<path d="M122.83 30.7753V21.1496H119.647V19.4779H127.899V21.1496H124.715V30.7753H122.83ZM134.326 30.7753L133.425 27.5158H129.693L128.8 30.7753H126.96L130.196 19.4779H132.952L136.189 30.7753H134.326ZM130.135 25.9052H132.983L131.555 20.7526L130.135 25.9052ZM131.082 18.5618C131.097 18.3278 131.171 18.1471 131.303 18.0199C131.441 17.8927 131.619 17.7756 131.838 17.6687C131.98 17.5924 132.079 17.5313 132.135 17.4855C132.196 17.4397 132.227 17.3812 132.227 17.31C132.227 17.2031 132.166 17.1217 132.044 17.0657C131.927 17.0097 131.728 16.9817 131.448 16.9817C131.23 16.9817 131.001 17.0021 130.761 17.0428C130.522 17.0784 130.301 17.1319 130.097 17.2031V16.4016C130.28 16.3405 130.512 16.2896 130.792 16.2489C131.077 16.2082 131.344 16.1879 131.593 16.1879C132.728 16.1879 133.296 16.511 133.296 17.1573C133.296 17.2947 133.265 17.4118 133.204 17.5084C133.148 17.6 133.077 17.6764 132.99 17.7374C132.909 17.7985 132.797 17.8723 132.654 17.9588C132.476 18.0555 132.339 18.1471 132.242 18.2336C132.151 18.3201 132.095 18.4295 132.074 18.5618H131.082ZM137.171 30.7753V19.4779H139.049V30.7753H137.171ZM150.758 21.119H146.056V24.3709H150.04V26.012H146.056V30.7753H144.178V19.4779H150.758V21.119ZM151.796 30.7753V19.4779H153.674V30.7753H151.796ZM155.539 30.7753V19.4779H157.416V29.1036H161.981V30.7753H155.539ZM164.796 29.1494H169.635V30.7753H162.948V19.4779H169.559V21.1038H164.796V24.18H168.818V25.8059H164.796V29.1494Z" fill="#C07404"/>
</g>
<g filter="url(#filter2_i_64_1906)">
<path fill-rule="evenodd" clip-rule="evenodd" d="M23.019 25.6686C23.8184 24.9892 25.0995 24.9892 25.899 25.6686L32.4819 31.5289C36.3682 29.791 40.9511 28.965 45.6476 28.965C50.3442 28.965 54.927 29.791 58.8134 31.5289L65.3963 25.6686C66.1957 24.9892 67.4768 24.9892 68.2763 25.6686C69.0757 26.348 69.0757 27.5531 68.2763 28.2325L62.1048 33.3602C69.0234 37.6889 73.6249 44.5448 73.6249 52.4062C73.6249 52.6 73.6303 52.946 73.6249 53.1387H17.6704C17.665 52.946 17.6704 52.6 17.6704 52.4062C17.6704 44.5448 22.2718 37.6889 29.1904 33.3602L23.019 28.2325C22.2195 27.5531 22.2195 26.348 23.019 25.6686ZM34.539 45.0808C36.0465 45.0808 37.419 44.1643 37.419 42.8832C37.419 41.6021 36.0465 40.3193 34.539 40.3193C33.0316 40.3193 32.0704 41.6021 32.0704 42.8832C32.0704 44.1643 33.0316 45.0808 34.539 45.0808ZM59.2248 42.8832C59.2248 44.1643 58.2637 45.0808 56.7562 45.0808C55.2488 45.0808 53.8762 44.1643 53.8762 42.8832C53.8762 41.6021 55.2488 40.3193 56.7562 40.3193C58.2637 40.3193 59.2248 41.6021 59.2248 42.8832Z" fill="url(#paint0_linear_64_1906)"/>
</g>
<defs>
<filter id="filter0_i_64_1906" x="121.094" y="38.8792" width="47.2031" height="17.6838" filterUnits="userSpaceOnUse" color-interpolation-filters="sRGB">
<feFlood flood-opacity="0" result="BackgroundImageFix"/>
<feBlend mode="normal" in="SourceGraphic" in2="BackgroundImageFix" result="shape"/>
<feColorMatrix in="SourceAlpha" type="matrix" values="0 0 0 0 0 0 0 0 0 0 0 0 0 0 0 0 0 0 127 0" result="hardAlpha"/>
<feOffset/>
<feGaussianBlur stdDeviation="0.578592"/>
<feComposite in2="hardAlpha" operator="arithmetic" k2="-1" k3="1"/>
<feColorMatrix type="matrix" values="0 0 0 0 0.548077 0 0 0 0 0.316198 0 0 0 0 0.00263499 0 0 0 1 0"/>
<feBlend mode="multiply" in2="shape" result="effect1_innerShadow_64_1906"/>
</filter>
<filter id="filter1_i_64_1906" x="119.646" y="16.1879" width="49.9883" height="14.5874" filterUnits="userSpaceOnUse" color-interpolation-filters="sRGB">
<feFlood flood-opacity="0" result="BackgroundImageFix"/>
<feBlend mode="normal" in="SourceGraphic" in2="BackgroundImageFix" result="shape"/>
<feColorMatrix in="SourceAlpha" type="matrix" values="0 0 0 0 0 0 0 0 0 0 0 0 0 0 0 0 0 0 127 0" result="hardAlpha"/>
<feOffset/>
<feGaussianBlur stdDeviation="0.466328"/>
<feComposite in2="hardAlpha" operator="arithmetic" k2="-1" k3="1"/>
<feColorMatrix type="matrix" values="0 0 0 0 0.548077 0 0 0 0 0.316198 0 0 0 0 0.00263499 0 0 0 1 0"/>
<feBlend mode="multiply" in2="shape" result="effect1_innerShadow_64_1906"/>
</filter>
<filter id="filter2_i_64_1906" x="17.668" y="25.1591" width="55.959" height="27.9796" filterUnits="userSpaceOnUse" color-interpolation-filters="sRGB">
<feFlood flood-opacity="0" result="BackgroundImageFix"/>
<feBlend mode="normal" in="SourceGraphic" in2="BackgroundImageFix" result="shape"/>
<feColorMatrix in="SourceAlpha" type="matrix" values="0 0 0 0 0 0 0 0 0 0 0 0 0 0 0 0 0 0 127 0" result="hardAlpha"/>
<feOffset/>
<feGaussianBlur stdDeviation="0.932655"/>
<feComposite in2="hardAlpha" operator="arithmetic" k2="-1" k3="1"/>
<feColorMatrix type="matrix" values="0 0 0 0 0.548077 0 0 0 0 0.316198 0 0 0 0 0.00263499 0 0 0 1 0"/>
<feBlend mode="multiply" in2="shape" result="effect1_innerShadow_64_1906"/>
</filter>
<linearGradient id="paint0_linear_64_1906" x1="48.642" y1="51.6643" x2="48.642" y2="24.7363" gradientUnits="userSpaceOnUse">
<stop stop-color="#F49C1C"/>
<stop offset="1" stop-color="#B15402"/>
</linearGradient>
</defs>
</svg>
