<svg width="251" height="77" viewBox="0 0 251 77" fill="none" xmlns="http://www.w3.org/2000/svg">
<path d="M19.117 75.2061C14.3605 75.2061 10.4894 71.2812 10.4894 66.4589V65.7819C5.02018 64.7094 0.878906 59.8262 0.878906 53.977L0.881012 21.8075C0.881012 15.9583 5.02229 11.0751 10.484 10.0102V9.33327C10.4915 4.51089 14.3552 0.58606 19.1191 0.58606H229.901C235.438 0.58606 240.067 4.6402 241.042 9.97219C246.601 10.961 250.833 15.8975 250.833 21.8075L250.83 53.977C250.83 59.8946 246.592 64.8235 241.04 65.8123C240.065 71.1443 235.443 75.1985 229.899 75.1985H19.117V75.2061Z" fill="#FFF6C6"/>
<path d="M4.60742 52.5283C4.60742 57.9059 8.90624 62.2643 14.2104 62.2643V65.0025C14.2104 68.5699 17.0688 71.4679 20.5873 71.4679H221.32H228.417C233.429 71.4679 237.495 67.3453 237.495 62.2643C242.799 62.2643 247.098 57.9059 247.098 52.5283V23.2564C247.098 17.8787 242.799 13.5204 237.495 13.5204C237.495 8.43937 233.429 4.31677 228.417 4.31677H221.32H30.3853H20.5873C17.0688 4.31677 14.2104 7.21476 14.2104 10.7821V13.5204C8.90624 13.5204 4.60742 17.8787 4.60742 23.2564V52.5283Z" stroke="#A66005" stroke-width="1.04092" stroke-miterlimit="10"/>
<g filter="url(#filter0_i_64_1886)">
<path d="M54.3032 36.8849C54.2482 30.9204 59.3122 28.0187 59.5437 27.8836C56.6758 23.8067 52.2306 23.2497 50.6685 23.2053C46.935 22.8222 43.3135 25.3834 41.4117 25.3834C39.4719 25.3834 36.5432 23.2423 33.3867 23.3052C29.3249 23.3663 25.525 25.6592 23.4409 29.2197C19.1399 36.4796 22.3476 47.1483 26.4683 53.0166C28.5296 55.8906 30.9382 59.0995 34.0909 58.9866C37.1752 58.8626 38.3273 57.0694 42.0494 57.0694C45.7373 57.0694 46.8192 58.9866 50.0345 58.9144C53.3447 58.8626 55.4288 56.0275 57.4179 53.1276C59.8 49.8335 60.7566 46.5895 60.7946 46.4229C60.7167 46.397 54.3659 44.0338 54.3032 36.8849Z" fill="url(#paint0_linear_64_1886)"/>
<path d="M48.2295 19.3449C49.8884 17.3222 51.0234 14.5704 50.7083 11.7778C48.3073 11.8815 45.3046 13.3971 43.5754 15.3754C42.0456 17.1187 40.679 19.976 41.0321 22.6631C43.7292 22.8592 46.4984 21.3362 48.2295 19.3449Z" fill="url(#paint1_linear_64_1886)"/>
</g>
<g filter="url(#filter1_i_64_1886)">
<path d="M94.6576 58.3118L93.5015 53.994H87.9568L86.8125 58.3118H82.6128L87.5557 40.8521H93.9615L98.8927 58.3118H94.6576ZM88.8888 50.4549H92.5577L90.7174 43.5537L88.8888 50.4549ZM100.211 41.1824C102.036 40.8128 103.798 40.628 105.496 40.628C108.1 40.628 110.038 41.151 111.312 42.197C112.594 43.2351 113.235 44.8592 113.235 47.0692C113.235 49.1691 112.61 50.7656 111.359 51.8588C110.109 52.9441 108.288 53.4868 105.897 53.4868C105.685 53.4868 105.39 53.4789 105.013 53.4632L104.529 53.4514V58.3118H100.211V41.1824ZM105.945 50.1364C107.014 50.1364 107.797 49.9005 108.292 49.4286C108.788 48.9567 109.035 48.182 109.035 47.1046C109.035 46.0192 108.78 45.2288 108.269 44.7334C107.765 44.23 106.979 43.9783 105.909 43.9783C105.39 43.9783 104.93 44.0177 104.529 44.0963V50.042C104.938 50.105 105.41 50.1364 105.945 50.1364ZM115.211 41.1824C117.036 40.8128 118.797 40.628 120.496 40.628C123.099 40.628 125.038 41.151 126.312 42.197C127.594 43.2351 128.235 44.8592 128.235 47.0692C128.235 49.1691 127.61 50.7656 126.359 51.8588C125.109 52.9441 123.288 53.4868 120.897 53.4868C120.685 53.4868 120.39 53.4789 120.012 53.4632L119.529 53.4514V58.3118H115.211V41.1824ZM120.944 50.1364C122.014 50.1364 122.796 49.9005 123.292 49.4286C123.787 48.9567 124.035 48.182 124.035 47.1046C124.035 46.0192 123.78 45.2288 123.268 44.7334C122.765 44.23 121.979 43.9783 120.909 43.9783C120.39 43.9783 119.93 44.0177 119.529 44.0963V50.042C119.938 50.105 120.41 50.1364 120.944 50.1364ZM140.128 58.5477C139.334 58.5477 138.52 58.4809 137.686 58.3472C136.852 58.2213 136.097 58.0404 135.421 57.8045V54.2536C136.121 54.4817 136.88 54.6625 137.698 54.7962C138.524 54.9299 139.31 54.9968 140.057 54.9968C141.025 54.9968 141.721 54.8592 142.145 54.5839C142.578 54.3008 142.794 53.8957 142.794 53.3688C142.794 53.0857 142.731 52.8458 142.605 52.6492C142.48 52.4447 142.259 52.2638 141.945 52.1065C141.638 51.9414 141.198 51.7723 140.623 51.5992L139.243 51.1863C137.859 50.7931 136.793 50.1797 136.046 49.346C135.307 48.5045 134.937 47.4231 134.937 46.1018C134.937 44.9536 135.205 43.9705 135.74 43.1526C136.282 42.3346 137.092 41.7094 138.17 41.2768C139.247 40.8364 140.584 40.6162 142.181 40.6162C142.92 40.6162 143.636 40.6634 144.328 40.7578C145.02 40.8443 145.637 40.9622 146.18 41.1117V44.6626C145.669 44.5053 145.095 44.3834 144.458 44.2969C143.82 44.2104 143.18 44.1671 142.535 44.1671C141.347 44.1671 140.502 44.3165 139.998 44.6154C139.503 44.9064 139.255 45.3075 139.255 45.8187C139.255 46.0861 139.306 46.3142 139.408 46.5029C139.518 46.6838 139.707 46.849 139.975 46.9984C140.242 47.1478 140.627 47.2973 141.131 47.4467L142.511 47.8596C144.045 48.3 145.193 48.9331 145.956 49.7589C146.726 50.5847 147.112 51.674 147.112 53.0267C147.112 54.1592 146.837 55.1423 146.286 55.976C145.736 56.8017 144.933 57.4388 143.879 57.8871C142.833 58.3275 141.583 58.5477 140.128 58.5477ZM151.937 58.3118V44.5564H146.888V40.8521H161.328V44.5564H156.267V58.3118H151.937ZM169.279 58.5477C167.659 58.5477 166.252 58.2253 165.056 57.5804C163.869 56.9354 162.948 55.9445 162.296 54.6075C161.643 53.2705 161.316 51.5953 161.316 49.5819C161.316 47.5686 161.643 45.8934 162.296 44.5564C162.948 43.2194 163.869 42.2285 165.056 41.5835C166.252 40.9386 167.659 40.6162 169.279 40.6162C170.9 40.6162 172.303 40.9386 173.491 41.5835C174.679 42.2285 175.599 43.2194 176.252 44.5564C176.904 45.8934 177.231 47.5686 177.231 49.5819C177.231 51.5953 176.904 53.2705 176.252 54.6075C175.599 55.9445 174.679 56.9354 173.491 57.5804C172.303 58.2253 170.9 58.5477 169.279 58.5477ZM169.279 55.0086C170.436 55.0086 171.309 54.5918 171.898 53.7581C172.496 52.9166 172.795 51.5521 172.795 49.6645C172.795 47.7062 172.496 46.2984 171.898 45.4412C171.309 44.5839 170.436 44.1553 169.279 44.1553C168.123 44.1553 167.246 44.5761 166.649 45.4176C166.051 46.2512 165.752 47.6118 165.752 49.4994C165.752 51.4655 166.047 52.8773 166.637 53.7345C167.227 54.5839 168.108 55.0086 169.279 55.0086ZM188.973 58.3118L185.045 52.1891C184.801 52.1891 184.482 52.1812 184.089 52.1655C183.853 52.1498 183.676 52.1419 183.558 52.1419V58.3118H179.311V41.2296C181.112 40.8285 182.913 40.628 184.714 40.628C187.231 40.628 189.119 41.1038 190.377 42.0554C191.635 43.0071 192.265 44.4542 192.265 46.3967C192.265 47.6 191.989 48.6264 191.439 49.4758C190.896 50.3252 190.117 50.9779 189.103 51.4341L193.621 58.3118H188.973ZM183.558 48.8033C184.125 48.8663 184.651 48.8977 185.139 48.8977C186.169 48.8977 186.936 48.705 187.44 48.3197C187.943 47.9264 188.195 47.2894 188.195 46.4085C188.195 45.5434 187.947 44.9064 187.451 44.4974C186.964 44.0885 186.232 43.884 185.257 43.884C184.691 43.884 184.125 43.9312 183.558 44.0255V48.8033ZM199.238 54.7373H207.036V58.3118H194.979V40.8521H206.918V44.4266H199.238V47.6118H205.691V51.1746H199.238V54.7373Z" fill="#AA6703"/>
</g>
<g filter="url(#filter2_i_64_1886)">
<path d="M96.1898 32.3169V22.6912H93.0066V21.0195H101.258V22.6912H98.0752V32.3169H96.1898ZM107.686 32.3169L106.785 29.0574H103.052L102.159 32.3169H100.32L103.556 21.0195H106.312L109.548 32.3169H107.686ZM103.495 27.4468H106.342L104.915 22.2943L103.495 27.4468ZM104.442 20.1035C104.457 19.8694 104.531 19.6887 104.663 19.5615C104.8 19.4343 104.979 19.3172 105.197 19.2104C105.34 19.134 105.439 19.073 105.495 19.0272C105.556 18.9814 105.587 18.9228 105.587 18.8516C105.587 18.7447 105.526 18.6633 105.404 18.6073C105.286 18.5514 105.088 18.5234 104.808 18.5234C104.589 18.5234 104.36 18.5437 104.121 18.5844C103.882 18.6201 103.661 18.6735 103.457 18.7447V17.9432C103.64 17.8822 103.872 17.8313 104.152 17.7906C104.437 17.7498 104.704 17.7295 104.953 17.7295C106.088 17.7295 106.655 18.0526 106.655 18.6989C106.655 18.8363 106.625 18.9534 106.564 19.0501C106.508 19.1417 106.437 19.218 106.35 19.2791C106.269 19.3401 106.157 19.4139 106.014 19.5004C105.836 19.5971 105.699 19.6887 105.602 19.7752C105.51 19.8618 105.454 19.9712 105.434 20.1035H104.442ZM110.531 32.3169V21.0195H112.408V32.3169H110.531ZM124.98 26.8209V32.2253C124.171 32.3627 123.408 32.4314 122.69 32.4314C121.459 32.4314 120.436 32.2355 119.622 31.8436C118.813 31.4467 118.202 30.8258 117.79 29.9811C117.377 29.1312 117.171 28.0295 117.171 26.6758C117.171 24.6708 117.624 23.2026 118.53 22.2714C119.441 21.3401 120.772 20.8744 122.522 20.8744C123.316 20.8744 124.062 20.9711 124.759 21.1645V22.7675C124.031 22.5741 123.342 22.4775 122.69 22.4775C121.871 22.4775 121.202 22.6098 120.683 22.8744C120.169 23.139 119.782 23.5792 119.522 24.195C119.263 24.8107 119.133 25.6453 119.133 26.6987C119.133 27.7165 119.258 28.5282 119.507 29.1338C119.762 29.7394 120.133 30.1745 120.622 30.4391C121.11 30.7037 121.736 30.836 122.499 30.836C122.779 30.836 123.024 30.8258 123.232 30.8055V26.8209H124.98ZM133.195 32.3169L132.294 29.0574H128.562L127.669 32.3169H125.829L129.065 21.0195H131.821L135.058 32.3169H133.195ZM129.004 27.4468H131.852L130.424 22.2943L129.004 27.4468ZM144.353 21.0195H146.635V32.3169H144.887V23.7446L142.124 30.7062H140.589L137.818 23.8744V32.3169H136.07V21.0195H138.36L141.383 28.6376L144.353 21.0195ZM150.381 30.691H155.22V32.3169H148.533V21.0195H155.144V22.6454H150.381V25.7216H154.404V27.3476H150.381V30.691ZM162.087 32.3169V22.6912H158.904V21.0195H167.156V22.6912H163.973V32.3169H162.087ZM174.245 32.3169L171.413 27.9582C171.337 27.9633 171.215 27.9659 171.047 27.9659C170.767 27.9659 170.413 27.9557 169.986 27.9353V32.3169H168.139V21.1874C169.141 20.9889 170.116 20.8897 171.062 20.8897C172.518 20.8897 173.604 21.1823 174.322 21.7676C175.044 22.3528 175.406 23.2332 175.406 24.4087C175.411 25.2229 175.22 25.9023 174.833 26.4468C174.452 26.9913 173.899 27.3908 173.177 27.6453L176.261 32.3169H174.245ZM169.986 26.4239C170.373 26.4545 170.721 26.4697 171.032 26.4697C171.922 26.4697 172.576 26.3069 172.994 25.9812C173.416 25.6555 173.627 25.1339 173.627 24.4163C173.627 23.7192 173.434 23.2052 173.047 22.8744C172.665 22.5436 172.075 22.3782 171.276 22.3782C170.849 22.3782 170.419 22.4113 169.986 22.4775V26.4239ZM179.17 30.691H184.009V32.3169H177.323V21.0195H183.933V22.6454H179.17V25.7216H183.193V27.3476H179.17V30.691ZM183.093 20.1035H181.781L180.811 18.5539L179.834 20.1035H178.521L180.002 17.844H181.613L183.093 20.1035ZM191.772 21.0195H193.527V32.3169H191.634L187.077 24.1644V32.3169H185.314V21.0195H187.207L191.772 29.1872V21.0195Z" fill="#C07404"/>
</g>
<defs>
<filter id="filter0_i_64_1886" x="21.3984" y="11.7778" width="39.3965" height="47.2117" filterUnits="userSpaceOnUse" color-interpolation-filters="sRGB">
<feFlood flood-opacity="0" result="BackgroundImageFix"/>
<feBlend mode="normal" in="SourceGraphic" in2="BackgroundImageFix" result="shape"/>
<feColorMatrix in="SourceAlpha" type="matrix" values="0 0 0 0 0 0 0 0 0 0 0 0 0 0 0 0 0 0 127 0" result="hardAlpha"/>
<feOffset/>
<feGaussianBlur stdDeviation="0.932655"/>
<feComposite in2="hardAlpha" operator="arithmetic" k2="-1" k3="1"/>
<feColorMatrix type="matrix" values="0 0 0 0 0.548077 0 0 0 0 0.316198 0 0 0 0 0.00263499 0 0 0 1 0"/>
<feBlend mode="multiply" in2="shape" result="effect1_innerShadow_64_1886"/>
</filter>
<filter id="filter1_i_64_1886" x="82.6133" y="40.6162" width="124.422" height="17.9315" filterUnits="userSpaceOnUse" color-interpolation-filters="sRGB">
<feFlood flood-opacity="0" result="BackgroundImageFix"/>
<feBlend mode="normal" in="SourceGraphic" in2="BackgroundImageFix" result="shape"/>
<feColorMatrix in="SourceAlpha" type="matrix" values="0 0 0 0 0 0 0 0 0 0 0 0 0 0 0 0 0 0 127 0" result="hardAlpha"/>
<feOffset/>
<feGaussianBlur stdDeviation="0.578592"/>
<feComposite in2="hardAlpha" operator="arithmetic" k2="-1" k3="1"/>
<feColorMatrix type="matrix" values="0 0 0 0 0.548077 0 0 0 0 0.316198 0 0 0 0 0.00263499 0 0 0 1 0"/>
<feBlend mode="multiply" in2="shape" result="effect1_innerShadow_64_1886"/>
</filter>
<filter id="filter2_i_64_1886" x="93.0059" y="17.7295" width="100.521" height="14.7019" filterUnits="userSpaceOnUse" color-interpolation-filters="sRGB">
<feFlood flood-opacity="0" result="BackgroundImageFix"/>
<feBlend mode="normal" in="SourceGraphic" in2="BackgroundImageFix" result="shape"/>
<feColorMatrix in="SourceAlpha" type="matrix" values="0 0 0 0 0 0 0 0 0 0 0 0 0 0 0 0 0 0 127 0" result="hardAlpha"/>
<feOffset/>
<feGaussianBlur stdDeviation="0.466328"/>
<feComposite in2="hardAlpha" operator="arithmetic" k2="-1" k3="1"/>
<feColorMatrix type="matrix" values="0 0 0 0 0.548077 0 0 0 0 0.316198 0 0 0 0 0.00263499 0 0 0 1 0"/>
<feBlend mode="multiply" in2="shape" result="effect1_innerShadow_64_1886"/>
</filter>
<linearGradient id="paint0_linear_64_1886" x1="43.2046" y1="56.5016" x2="43.2046" y2="11.0645" gradientUnits="userSpaceOnUse">
<stop stop-color="#F49C1C"/>
<stop offset="1" stop-color="#B15402"/>
</linearGradient>
<linearGradient id="paint1_linear_64_1886" x1="43.2046" y1="56.5016" x2="43.2046" y2="11.0645" gradientUnits="userSpaceOnUse">
<stop stop-color="#F49C1C"/>
<stop offset="1" stop-color="#B15402"/>
</linearGradient>
</defs>
</svg>
