<svg width="251" height="76" viewBox="0 0 251 76" fill="none" xmlns="http://www.w3.org/2000/svg">
<path d="M18.8807 75.53C14.1242 75.53 10.253 71.6052 10.253 66.7828V66.1059C4.78385 65.0334 0.642578 60.1502 0.642578 54.3009L0.644684 22.1315C0.644684 16.2823 4.78596 11.3991 10.2476 10.3342V9.65724C10.2551 4.83487 14.1188 0.910034 18.8828 0.910034H229.665C235.201 0.910034 239.83 4.96417 240.806 10.2962C246.365 11.285 250.596 16.2214 250.596 22.1315L250.594 54.3009C250.594 60.2186 246.355 65.1475 240.804 66.1363C239.828 71.4683 235.207 75.5224 229.663 75.5224H18.8807V75.53Z" fill="#FFF6C6"/>
<path d="M4.37109 52.8521C4.37109 58.2298 8.66991 62.5881 13.974 62.5881V65.3264C13.974 68.8937 16.8324 71.7917 20.351 71.7917H221.083H228.181C233.192 71.7917 237.258 67.6691 237.258 62.5881C242.563 62.5881 246.861 58.2298 246.861 52.8521V23.5802C246.861 18.2026 242.563 13.8442 237.258 13.8442C237.258 8.76322 233.192 4.64062 228.181 4.64062H221.083H30.149H20.351C16.8324 4.64062 13.974 7.53861 13.974 11.106V13.8442C8.66991 13.8442 4.37109 18.2026 4.37109 23.5802V52.8521Z" stroke="#A66005" stroke-width="1.04092" stroke-miterlimit="10"/>
<g filter="url(#filter0_i_64_1913)">
<path d="M113.928 48.0692V56.4097C112.402 56.6614 110.99 56.7873 109.693 56.7873C106.437 56.7873 103.998 56.0558 102.378 54.593C100.766 53.1302 99.9599 50.8848 99.9599 47.8569C99.9599 44.8683 100.786 42.6229 102.437 41.1208C104.089 39.6186 106.499 38.8675 109.669 38.8675C111.03 38.8675 112.292 39.013 113.456 39.304V42.8903C112.252 42.6151 111.14 42.4774 110.117 42.4774C108.78 42.4774 107.699 42.6583 106.873 43.0201C106.055 43.374 105.449 43.9481 105.056 44.7425C104.663 45.5368 104.466 46.5946 104.466 47.9159C104.466 49.7719 104.864 51.1168 105.658 51.9505C106.452 52.7841 107.659 53.201 109.28 53.201C109.571 53.201 109.787 53.197 109.928 53.1892V48.0692H113.928ZM116.457 56.5631V39.1035H120.775V56.5631H116.457ZM134.129 56.5631L132.973 52.2454H127.428L126.284 56.5631H122.084L127.027 39.1035H133.433L138.364 56.5631H134.129ZM128.36 48.7063H132.029L130.189 41.805L128.36 48.7063ZM129.174 37.8058C129.198 37.4283 129.324 37.1373 129.552 36.9328C129.78 36.7205 130.083 36.5199 130.46 36.3312C130.665 36.2368 130.81 36.1581 130.897 36.0952C130.983 36.0323 131.026 35.9576 131.026 35.8711C131.026 35.7295 130.928 35.6273 130.731 35.5644C130.543 35.4936 130.244 35.4582 129.835 35.4582C129.072 35.4582 128.345 35.5447 127.652 35.7177V34.1369C127.967 34.0504 128.364 33.9836 128.844 33.9364C129.324 33.8813 129.768 33.8538 130.177 33.8538C131.247 33.8538 132.029 33.9914 132.525 34.2667C133.028 34.5341 133.28 34.9548 133.28 35.529C133.28 35.8357 133.189 36.0834 133.008 36.2722C132.827 36.4531 132.556 36.6458 132.194 36.8502C131.895 37.0311 131.671 37.1884 131.522 37.3221C131.372 37.448 131.286 37.6092 131.262 37.8058H129.174ZM145.259 56.5631V39.1035H149.576V52.8588H156.82V56.5631H145.259ZM168.967 56.5631L167.811 52.2454H162.266L161.122 56.5631H156.922L161.865 39.1035H168.271L173.202 56.5631H168.967ZM163.198 48.7063H166.867L165.027 41.805L163.198 48.7063ZM165.062 61.801C164.229 61.801 163.588 61.6358 163.139 61.3055C162.691 60.9752 162.467 60.4915 162.467 59.8545C162.467 59.2174 162.691 58.7338 163.139 58.4035C163.588 58.0731 164.229 57.908 165.062 57.908C165.896 57.908 166.533 58.0731 166.973 58.4035C167.422 58.7338 167.646 59.2174 167.646 59.8545C167.646 60.4915 167.422 60.9752 166.973 61.3055C166.533 61.6358 165.896 61.801 165.062 61.801ZM169.498 37.8058H166.502L165.062 35.6705L163.611 37.8058H160.615L163.269 34.1487H166.844L169.498 37.8058ZM174.521 39.4338C176.345 39.0642 178.107 38.8793 179.806 38.8793C182.409 38.8793 184.348 39.4023 185.622 40.4483C186.904 41.4865 187.545 43.1105 187.545 45.3205C187.545 47.4204 186.92 49.0169 185.669 50.1101C184.419 51.1955 182.598 51.7381 180.207 51.7381C179.995 51.7381 179.7 51.7303 179.322 51.7145L178.839 51.7027V56.5631H174.521V39.4338ZM180.254 48.3878C181.324 48.3878 182.106 48.1518 182.602 47.6799C183.097 47.208 183.345 46.4334 183.345 45.3559C183.345 44.2706 183.089 43.4802 182.578 42.9847C182.075 42.4814 181.288 42.2297 180.219 42.2297C179.7 42.2297 179.24 42.269 178.839 42.3477V48.2934C179.247 48.3563 179.719 48.3878 180.254 48.3878Z" fill="#AA6703"/>
</g>
<g filter="url(#filter1_i_64_1913)">
<path d="M98.9721 30.7753V21.1496H95.789V19.4779H104.041V21.1496H100.858V30.7753H98.9721ZM110.468 30.7753L109.567 27.5158H105.835L104.942 30.7753H103.102L106.339 19.4779H109.094L112.331 30.7753H110.468ZM106.277 25.9052H109.125L107.697 20.7526L106.277 25.9052ZM107.224 18.5618C107.239 18.3278 107.313 18.1471 107.445 18.0199C107.583 17.8927 107.761 17.7756 107.98 17.6687C108.122 17.5924 108.221 17.5313 108.277 17.4855C108.339 17.4397 108.369 17.3812 108.369 17.31C108.369 17.2031 108.308 17.1217 108.186 17.0657C108.069 17.0097 107.87 16.9817 107.59 16.9817C107.372 16.9817 107.143 17.0021 106.903 17.0428C106.664 17.0784 106.443 17.1319 106.239 17.2031V16.4016C106.423 16.3405 106.654 16.2896 106.934 16.2489C107.219 16.2082 107.486 16.1879 107.735 16.1879C108.87 16.1879 109.438 16.511 109.438 17.1573C109.438 17.2947 109.407 17.4118 109.346 17.5084C109.29 17.6 109.219 17.6764 109.132 17.7374C109.051 17.7985 108.939 17.8723 108.797 17.9588C108.618 18.0555 108.481 18.1471 108.384 18.2336C108.293 18.3201 108.237 18.4295 108.216 18.5618H107.224ZM113.313 30.7753V19.4779H115.191V30.7753H113.313ZM120.32 19.6458C121.302 19.4473 122.249 19.3481 123.16 19.3481C124.651 19.3481 125.765 19.6738 126.503 20.3252C127.241 20.9715 127.61 21.9816 127.61 23.3556C127.61 24.6635 127.238 25.6558 126.495 26.3326C125.752 27.0044 124.653 27.3402 123.198 27.3402C122.913 27.3402 122.58 27.3275 122.198 27.3021V30.7753H120.32V19.6458ZM123.236 25.7983C124.101 25.7983 124.74 25.6075 125.152 25.2258C125.564 24.839 125.77 24.2258 125.77 23.3861C125.77 22.5159 125.572 21.8824 125.175 21.4854C124.778 21.0834 124.16 20.8824 123.32 20.8824C122.923 20.8824 122.549 20.9129 122.198 20.974V25.7372C122.488 25.7779 122.834 25.7983 123.236 25.7983ZM129.057 30.7753V19.4779H130.935V24.1266H135.24V19.4779H137.11V30.7753H135.24V25.8517H130.935V30.7753H129.057ZM145.474 30.7753L144.574 27.5158H140.841L139.948 30.7753H138.108L141.345 19.4779H144.1L147.337 30.7753H145.474ZM141.284 25.9052H144.131L142.704 20.7526L141.284 25.9052ZM145.543 16.9436H144.597L143.513 15.02H144.742L145.543 16.9436ZM141.925 16.4856H143.536L145.016 18.5618H143.704L142.734 17.1191L141.757 18.5618H140.444L141.925 16.4856ZM154.777 19.4779H156.533V30.7753H154.64L150.082 22.6228V30.7753H148.319V19.4779H150.212L154.777 27.6456V19.4779ZM169.975 19.4779H172.258V30.7753H170.51V22.203L167.746 29.1646H166.212L163.441 22.3327V30.7753H161.693V19.4779H163.983L167.006 27.096L169.975 19.4779ZM176.004 29.1494H180.843V30.7753H174.156V19.4779H180.767V21.1038H176.004V24.18H180.026V25.8059H176.004V29.1494ZM180.454 16.9436H179.507L178.423 15.02H179.652L180.454 16.9436ZM176.836 16.4856H178.446L179.927 18.5618H178.614L177.645 17.1191L176.668 18.5618H175.355L176.836 16.4856ZM190.46 19.4779H192.743V30.7753H190.995V22.203L188.231 29.1646H186.697L183.926 22.3327V30.7753H182.178V19.4779H184.468L187.491 27.096L190.46 19.4779Z" fill="#C07404"/>
</g>
<g filter="url(#filter2_i_64_1913)">
<path d="M38.1533 44.0453L41.7764 47.6761C43.7801 49.6799 47.0265 49.6799 49.0303 47.6761L52.6611 44.0453H60.7959C63.6252 44.0453 65.9258 46.3459 65.9258 49.1752V51.7396C65.9258 54.5689 63.6252 56.8695 60.7959 56.8695H30.0186C27.1893 56.8695 24.8887 54.5689 24.8887 51.7396V49.1752C24.8887 46.3459 27.1893 44.0453 30.0186 44.0453H38.1533ZM45.4072 15.8324C46.8257 15.8324 47.9715 16.9784 47.9717 18.3969V37.85L53.8467 31.9662C54.8484 30.9645 56.4756 30.9648 57.4775 31.9662C58.4794 32.9681 58.4794 34.5952 57.4775 35.597L47.2188 45.8568C46.2169 46.8586 44.5897 46.8586 43.5879 45.8568L33.3291 35.597C32.3273 34.5952 32.3272 32.9681 33.3291 31.9662C34.331 30.9647 35.9582 30.9645 36.96 31.9662L42.8428 37.85V18.3969C42.843 16.9784 43.9888 15.8325 45.4072 15.8324Z" fill="url(#paint0_linear_64_1913)"/>
</g>
<defs>
<filter id="filter0_i_64_1913" x="99.959" y="33.8538" width="87.5859" height="27.9473" filterUnits="userSpaceOnUse" color-interpolation-filters="sRGB">
<feFlood flood-opacity="0" result="BackgroundImageFix"/>
<feBlend mode="normal" in="SourceGraphic" in2="BackgroundImageFix" result="shape"/>
<feColorMatrix in="SourceAlpha" type="matrix" values="0 0 0 0 0 0 0 0 0 0 0 0 0 0 0 0 0 0 127 0" result="hardAlpha"/>
<feOffset/>
<feGaussianBlur stdDeviation="0.578592"/>
<feComposite in2="hardAlpha" operator="arithmetic" k2="-1" k3="1"/>
<feColorMatrix type="matrix" values="0 0 0 0 0.548077 0 0 0 0 0.316198 0 0 0 0 0.00263499 0 0 0 1 0"/>
<feBlend mode="multiply" in2="shape" result="effect1_innerShadow_64_1913"/>
</filter>
<filter id="filter1_i_64_1913" x="95.7891" y="15.0199" width="96.9531" height="15.7554" filterUnits="userSpaceOnUse" color-interpolation-filters="sRGB">
<feFlood flood-opacity="0" result="BackgroundImageFix"/>
<feBlend mode="normal" in="SourceGraphic" in2="BackgroundImageFix" result="shape"/>
<feColorMatrix in="SourceAlpha" type="matrix" values="0 0 0 0 0 0 0 0 0 0 0 0 0 0 0 0 0 0 127 0" result="hardAlpha"/>
<feOffset/>
<feGaussianBlur stdDeviation="0.466328"/>
<feComposite in2="hardAlpha" operator="arithmetic" k2="-1" k3="1"/>
<feColorMatrix type="matrix" values="0 0 0 0 0.548077 0 0 0 0 0.316198 0 0 0 0 0.00263499 0 0 0 1 0"/>
<feBlend mode="multiply" in2="shape" result="effect1_innerShadow_64_1913"/>
</filter>
<filter id="filter2_i_64_1913" x="24.8887" y="15.8324" width="41.0371" height="41.0371" filterUnits="userSpaceOnUse" color-interpolation-filters="sRGB">
<feFlood flood-opacity="0" result="BackgroundImageFix"/>
<feBlend mode="normal" in="SourceGraphic" in2="BackgroundImageFix" result="shape"/>
<feColorMatrix in="SourceAlpha" type="matrix" values="0 0 0 0 0 0 0 0 0 0 0 0 0 0 0 0 0 0 127 0" result="hardAlpha"/>
<feOffset/>
<feGaussianBlur stdDeviation="0.932655"/>
<feComposite in2="hardAlpha" operator="arithmetic" k2="-1" k3="1"/>
<feColorMatrix type="matrix" values="0 0 0 0 0.548077 0 0 0 0 0.316198 0 0 0 0 0.00263499 0 0 0 1 0"/>
<feBlend mode="multiply" in2="shape" result="effect1_innerShadow_64_1913"/>
</filter>
<linearGradient id="paint0_linear_64_1913" x1="47.6031" y1="54.707" x2="47.6031" y2="15.2123" gradientUnits="userSpaceOnUse">
<stop stop-color="#F49C1C"/>
<stop offset="1" stop-color="#B15402"/>
</linearGradient>
</defs>
</svg>
