<svg width="1652" height="50" viewBox="0 0 1652 50" fill="none" xmlns="http://www.w3.org/2000/svg">
<path d="M812.346 24.3574H104.33" stroke="url(#paint0_linear_610_338)" stroke-width="5"/>
<path d="M839.385 24.3574H1547.4" stroke="url(#paint1_linear_610_338)" stroke-width="5"/>
<rect x="826.262" y="8.38647" width="24.6019" height="24.6019" transform="rotate(45 826.262 8.38647)" fill="#EAECE3"/>
<path d="M38.6102 11.6048C52.5267 5.6405 59.485 -9.26993 82.0993 11.6048C62.9641 4.64631 49.0476 11.6048 49.0476 22.0419C49.0476 29.0002 57.7454 37.6979 76.8806 27.2606C89.6378 20.3023 104.714 20.3023 123.849 23.7814C85.5784 27.2606 78.6202 49.8748 61.2246 49.8748C52.5267 49.8748 43.8289 46.3958 33.3915 34.2189C25.0416 24.4773 7.87795 18.5628 0.339844 16.8233C9.03766 16.8233 28.8687 15.7798 38.6102 11.6048Z" fill="#C9442A"/>
<path d="M1613.12 11.6048C1599.2 5.6405 1592.25 -9.26993 1569.63 11.6048C1588.77 4.64631 1602.68 11.6048 1602.68 22.0419C1602.68 29.0002 1593.99 37.6979 1574.85 27.2606C1562.09 20.3023 1547.02 20.3023 1527.88 23.7814C1566.15 27.2606 1573.11 49.8748 1590.51 49.8748C1599.2 49.8748 1607.9 46.3958 1618.34 34.2189C1626.69 24.4773 1643.85 18.5628 1651.39 16.8233C1642.69 16.8233 1622.86 15.7798 1613.12 11.6048Z" fill="#C9442A"/>
<defs>
<linearGradient id="paint0_linear_610_338" x1="812.346" y1="24.8574" x2="505.539" y2="24.8574" gradientUnits="userSpaceOnUse">
<stop stop-color="#EDBB17" stop-opacity="0"/>
<stop offset="1" stop-color="#EDBB17"/>
</linearGradient>
<linearGradient id="paint1_linear_610_338" x1="839.385" y1="24.8574" x2="1146.19" y2="24.8574" gradientUnits="userSpaceOnUse">
<stop stop-color="#EDBB17" stop-opacity="0"/>
<stop offset="1" stop-color="#EDBB17"/>
</linearGradient>
</defs>
</svg>
