<svg width="251" height="76" viewBox="0 0 251 76" fill="none" xmlns="http://www.w3.org/2000/svg">
<path d="M18.8807 75.2062C14.1242 75.2062 10.253 71.2813 10.253 66.459V65.782C4.78385 64.7095 0.642578 59.8263 0.642578 53.9771L0.644684 21.8077C0.644684 15.9584 4.78596 11.0752 10.2476 10.0103V9.33339C10.2551 4.51101 14.1188 0.586182 18.8828 0.586182H229.665C235.201 0.586182 239.83 4.64032 240.806 9.97231C246.365 10.9611 250.596 15.8976 250.596 21.8077L250.594 53.9771C250.594 59.8948 246.355 64.8236 240.804 65.8124C239.828 71.1444 235.207 75.1986 229.663 75.1986H18.8807V75.2062Z" fill="#FFF6C6"/>
<path d="M4.37109 52.5284C4.37109 57.906 8.66991 62.2644 13.974 62.2644V65.0027C13.974 68.57 16.8324 71.468 20.351 71.468H221.083H228.181C233.192 71.468 237.258 67.3454 237.258 62.2644C242.563 62.2644 246.861 57.906 246.861 52.5284V23.2565C246.861 17.8789 242.563 13.5205 237.258 13.5205C237.258 8.43949 233.192 4.31689 228.181 4.31689H221.083H30.149H20.351C16.8324 4.31689 13.974 7.21488 13.974 10.7822V13.5205C8.66991 13.5205 4.37109 17.8789 4.37109 23.2565V52.5284Z" stroke="#A66005" stroke-width="1.04092" stroke-miterlimit="10"/>
<g filter="url(#filter0_i_64_1894)">
<path d="M53.4102 44.2104L30.1387 57.1029C28.7688 57.86 27.5639 57.7692 26.8252 57.0121L46.6816 37.6498L53.4102 44.2104ZM45.4834 36.2279V36.683L25.7432 55.9223L25.6279 55.8168C25.16 55.3393 24.8887 54.596 24.8887 53.6332V19.2856C24.8887 18.3227 25.16 17.5795 25.6279 17.102L25.7432 16.9887L45.4834 36.2279ZM54.6006 29.8959L62.3945 34.2191C64.6185 35.4461 64.6185 37.4649 62.3945 38.6996L54.6006 43.015L54.4453 43.099L47.873 36.683V36.2279L54.4531 29.8119L54.6006 29.8959ZM26.8252 15.9076C27.5639 15.1505 28.7688 15.0587 30.1387 15.808L53.4102 28.7006L46.6816 35.2611L26.8252 15.9076Z" fill="url(#paint0_linear_64_1894)"/>
</g>
<g filter="url(#filter1_i_64_1894)">
<path d="M81.6767 47.7455V56.086C80.1509 56.3377 78.7392 56.4635 77.4415 56.4635C74.1856 56.4635 71.7475 55.7321 70.1274 54.2693C68.5151 52.8064 67.709 50.5611 67.709 47.5332C67.709 44.5446 68.5348 42.2992 70.1864 40.797C71.8379 39.2949 74.2485 38.5438 77.4179 38.5438C78.7785 38.5438 80.0408 38.6893 81.2048 38.9803V42.5666C80.0015 42.2913 78.8886 42.1537 77.8662 42.1537C76.5292 42.1537 75.4478 42.3346 74.622 42.6964C73.8041 43.0503 73.1985 43.6244 72.8053 44.4187C72.4121 45.2131 72.2154 46.2709 72.2154 47.5921C72.2154 49.4482 72.6126 50.7931 73.407 51.6267C74.2013 52.4604 75.4085 52.8772 77.0286 52.8772C77.3196 52.8772 77.5359 52.8733 77.6775 52.8654V47.7455H81.6767ZM91.6856 56.4753C90.0654 56.4753 88.6577 56.1529 87.4622 55.508C86.2746 54.8631 85.3545 53.8721 84.7017 52.5351C84.0489 51.1981 83.7226 49.5229 83.7226 47.5096C83.7226 45.4962 84.0489 43.821 84.7017 42.484C85.3545 41.147 86.2746 40.1561 87.4622 39.5112C88.6577 38.8663 90.0654 38.5438 91.6856 38.5438C93.3057 38.5438 94.7095 38.8663 95.8971 39.5112C97.0847 40.1561 98.0049 41.147 98.6576 42.484C99.3104 43.821 99.6368 45.4962 99.6368 47.5096C99.6368 49.5229 99.3104 51.1981 98.6576 52.5351C98.0049 53.8721 97.0847 54.8631 95.8971 55.508C94.7095 56.1529 93.3057 56.4753 91.6856 56.4753ZM91.6856 52.9362C92.8417 52.9362 93.7147 52.5194 94.3045 51.6857C94.9022 50.8442 95.2011 49.4797 95.2011 47.5921C95.2011 45.6338 94.9022 44.226 94.3045 43.3688C93.7147 42.5115 92.8417 42.0829 91.6856 42.0829C90.5295 42.0829 89.6525 42.5037 89.0548 43.3452C88.4571 44.1789 88.1582 45.5395 88.1582 47.427C88.1582 49.3932 88.4532 50.8049 89.043 51.6621C89.6329 52.5115 90.5137 52.9362 91.6856 52.9362ZM109.197 56.4753C107.577 56.4753 106.169 56.1529 104.973 55.508C103.786 54.8631 102.866 53.8721 102.213 52.5351C101.56 51.1981 101.234 49.5229 101.234 47.5096C101.234 45.4962 101.56 43.821 102.213 42.484C102.866 41.147 103.786 40.1561 104.973 39.5112C106.169 38.8663 107.577 38.5438 109.197 38.5438C110.817 38.5438 112.221 38.8663 113.408 39.5112C114.596 40.1561 115.516 41.147 116.169 42.484C116.822 43.821 117.148 45.4962 117.148 47.5096C117.148 49.5229 116.822 51.1981 116.169 52.5351C115.516 53.8721 114.596 54.8631 113.408 55.508C112.221 56.1529 110.817 56.4753 109.197 56.4753ZM109.197 52.9362C110.353 52.9362 111.226 52.5194 111.816 51.6857C112.413 50.8442 112.712 49.4797 112.712 47.5921C112.712 45.6338 112.413 44.226 111.816 43.3688C111.226 42.5115 110.353 42.0829 109.197 42.0829C108.041 42.0829 107.164 42.5037 106.566 43.3452C105.968 44.1789 105.669 45.5395 105.669 47.427C105.669 49.3932 105.964 50.8049 106.554 51.6621C107.144 52.5115 108.025 52.9362 109.197 52.9362ZM132.713 47.7455V56.086C131.187 56.3377 129.775 56.4635 128.478 56.4635C125.222 56.4635 122.784 55.7321 121.163 54.2693C119.551 52.8064 118.745 50.5611 118.745 47.5332C118.745 44.5446 119.571 42.2992 121.222 40.797C122.874 39.2949 125.285 38.5438 128.454 38.5438C129.815 38.5438 131.077 38.6893 132.241 38.9803V42.5666C131.038 42.2913 129.925 42.1537 128.902 42.1537C127.565 42.1537 126.484 42.3346 125.658 42.6964C124.84 43.0503 124.235 43.6244 123.841 44.4187C123.448 45.2131 123.252 46.2709 123.252 47.5921C123.252 49.4482 123.649 50.7931 124.443 51.6267C125.237 52.4604 126.445 52.8772 128.065 52.8772C128.356 52.8772 128.572 52.8733 128.714 52.8654V47.7455H132.713ZM135.242 56.2394V38.7797H139.56V52.5351H146.803V56.2394H135.242ZM152.427 52.6649H160.225V56.2394H148.168V38.7797H160.107V42.3542H152.427V45.5395H158.88V49.1022H152.427V52.6649ZM167.845 39.1101C169.67 38.7404 171.432 38.5556 173.131 38.5556C175.734 38.5556 177.672 39.0786 178.947 40.1246C180.228 41.1627 180.869 42.7868 180.869 44.9968C180.869 47.0967 180.244 48.6932 178.994 49.7864C177.743 50.8717 175.923 51.4144 173.532 51.4144C173.319 51.4144 173.024 51.4065 172.647 51.3908L172.163 51.379V56.2394H167.845V39.1101ZM173.579 48.064C174.648 48.064 175.431 47.8281 175.926 47.3562C176.422 46.8843 176.67 46.1096 176.67 45.0322C176.67 43.9469 176.414 43.1564 175.903 42.661C175.4 42.1576 174.613 41.906 173.543 41.906C173.024 41.906 172.564 41.9453 172.163 42.0239V47.9696C172.572 48.0326 173.044 48.064 173.579 48.064ZM182.845 56.2394V38.7797H187.163V52.5351H194.406V56.2394H182.845ZM206.554 56.2394L205.398 51.9217H199.853L198.709 56.2394H194.509L199.452 38.7797H205.858L210.789 56.2394H206.554ZM200.785 48.3825H204.454L202.614 41.4813L200.785 48.3825ZM224.325 38.7797L218.544 48.9724V56.2394H214.226V48.996L208.304 38.7797H212.858L216.503 45.1855L220.137 38.7797H224.325Z" fill="#AA6703"/>
</g>
<g filter="url(#filter2_i_64_1894)">
<path d="M95.9534 30.4515V20.8258H92.7703V19.1541H101.022V20.8258H97.8389V30.4515H95.9534ZM107.45 30.4515L106.549 27.1921H102.816L101.923 30.4515H100.083L103.32 19.1541H106.076L109.312 30.4515H107.45ZM103.259 25.5814H106.106L104.679 20.4289L103.259 25.5814ZM104.205 18.2381C104.221 18.004 104.294 17.8234 104.427 17.6961C104.564 17.5689 104.742 17.4519 104.961 17.345C105.104 17.2687 105.203 17.2076 105.259 17.1618C105.32 17.116 105.35 17.0575 105.35 16.9862C105.35 16.8794 105.289 16.798 105.167 16.742C105.05 16.686 104.852 16.658 104.572 16.658C104.353 16.658 104.124 16.6784 103.885 16.7191C103.646 16.7547 103.424 16.8081 103.221 16.8794V16.0779C103.404 16.0168 103.635 15.9659 103.915 15.9252C104.2 15.8845 104.467 15.8641 104.717 15.8641C105.852 15.8641 106.419 16.1873 106.419 16.8336C106.419 16.971 106.389 17.088 106.327 17.1847C106.271 17.2763 106.2 17.3526 106.114 17.4137C106.032 17.4748 105.92 17.5486 105.778 17.6351C105.6 17.7318 105.462 17.8234 105.366 17.9099C105.274 17.9964 105.218 18.1058 105.198 18.2381H104.205ZM110.294 30.4515V19.1541H112.172V30.4515H110.294ZM124.744 24.9555V30.3599C123.935 30.4973 123.171 30.566 122.454 30.566C121.222 30.566 120.2 30.3701 119.385 29.9783C118.576 29.5813 117.966 28.9605 117.553 28.1157C117.141 27.2659 116.935 26.1641 116.935 24.8105C116.935 22.8054 117.388 21.3373 118.294 20.406C119.205 19.4747 120.535 19.0091 122.286 19.0091C123.08 19.0091 123.825 19.1058 124.523 19.2992V20.9022C123.795 20.7088 123.105 20.6121 122.454 20.6121C121.635 20.6121 120.965 20.7444 120.446 21.009C119.932 21.2737 119.546 21.7139 119.286 22.3296C119.027 22.9454 118.897 23.78 118.897 24.8334C118.897 25.8511 119.021 26.6628 119.271 27.2684C119.525 27.874 119.897 28.3091 120.385 28.5737C120.874 28.8383 121.5 28.9707 122.263 28.9707C122.543 28.9707 122.787 28.9605 122.996 28.9401V24.9555H124.744ZM132.959 30.4515L132.058 27.1921H128.325L127.432 30.4515H125.593L128.829 19.1541H131.585L134.821 30.4515H132.959ZM128.768 25.5814H131.615L130.188 20.4289L128.768 25.5814ZM144.116 19.1541H146.399V30.4515H144.651V21.8792L141.887 28.8409H140.353L137.582 22.009V30.4515H135.834V19.1541H138.124L141.147 26.7722L144.116 19.1541ZM150.144 28.8256H154.984V30.4515H148.297V19.1541H154.908V20.78H150.144V23.8563H154.167V25.4822H150.144V28.8256ZM161.851 30.4515V20.8258H158.668V19.1541H166.92V20.8258H163.736V30.4515H161.851ZM174.009 30.4515L171.177 26.0929C171.101 26.098 170.979 26.1005 170.811 26.1005C170.531 26.1005 170.177 26.0903 169.75 26.07V30.4515H167.902V19.3221C168.905 19.1236 169.879 19.0244 170.826 19.0244C172.281 19.0244 173.368 19.317 174.085 19.9022C174.808 20.4874 175.169 21.3678 175.169 22.5433C175.174 23.3576 174.984 24.0369 174.597 24.5815C174.215 25.126 173.663 25.5255 172.94 25.7799L176.024 30.4515H174.009ZM169.75 24.5586C170.136 24.5891 170.485 24.6044 170.795 24.6044C171.686 24.6044 172.34 24.4415 172.757 24.1158C173.18 23.7901 173.391 23.2685 173.391 22.551C173.391 21.8538 173.197 21.3398 172.811 21.009C172.429 20.6783 171.839 20.5129 171.04 20.5129C170.612 20.5129 170.182 20.5459 169.75 20.6121V24.5586ZM178.934 28.8256H183.773V30.4515H177.086V19.1541H183.697V20.78H178.934V23.8563H182.956V25.4822H178.934V28.8256ZM182.857 18.2381H181.544L180.575 16.6885L179.598 18.2381H178.285L179.766 15.9786H181.376L182.857 18.2381ZM191.535 19.1541H193.291V30.4515H191.398L186.841 22.2991V30.4515H185.078V19.1541H186.971L191.535 27.3218V19.1541Z" fill="#C07404"/>
</g>
<defs>
<filter id="filter0_i_64_1894" x="24.8887" y="15.2906" width="39.1738" height="42.3368" filterUnits="userSpaceOnUse" color-interpolation-filters="sRGB">
<feFlood flood-opacity="0" result="BackgroundImageFix"/>
<feBlend mode="normal" in="SourceGraphic" in2="BackgroundImageFix" result="shape"/>
<feColorMatrix in="SourceAlpha" type="matrix" values="0 0 0 0 0 0 0 0 0 0 0 0 0 0 0 0 0 0 127 0" result="hardAlpha"/>
<feOffset/>
<feGaussianBlur stdDeviation="0.932655"/>
<feComposite in2="hardAlpha" operator="arithmetic" k2="-1" k3="1"/>
<feColorMatrix type="matrix" values="0 0 0 0 0.548077 0 0 0 0 0.316198 0 0 0 0 0.00263499 0 0 0 1 0"/>
<feBlend mode="multiply" in2="shape" result="effect1_innerShadow_64_1894"/>
</filter>
<filter id="filter1_i_64_1894" x="67.709" y="38.5438" width="156.615" height="17.9315" filterUnits="userSpaceOnUse" color-interpolation-filters="sRGB">
<feFlood flood-opacity="0" result="BackgroundImageFix"/>
<feBlend mode="normal" in="SourceGraphic" in2="BackgroundImageFix" result="shape"/>
<feColorMatrix in="SourceAlpha" type="matrix" values="0 0 0 0 0 0 0 0 0 0 0 0 0 0 0 0 0 0 127 0" result="hardAlpha"/>
<feOffset/>
<feGaussianBlur stdDeviation="0.578592"/>
<feComposite in2="hardAlpha" operator="arithmetic" k2="-1" k3="1"/>
<feColorMatrix type="matrix" values="0 0 0 0 0.548077 0 0 0 0 0.316198 0 0 0 0 0.00263499 0 0 0 1 0"/>
<feBlend mode="multiply" in2="shape" result="effect1_innerShadow_64_1894"/>
</filter>
<filter id="filter2_i_64_1894" x="92.7695" y="15.8641" width="100.521" height="14.7019" filterUnits="userSpaceOnUse" color-interpolation-filters="sRGB">
<feFlood flood-opacity="0" result="BackgroundImageFix"/>
<feBlend mode="normal" in="SourceGraphic" in2="BackgroundImageFix" result="shape"/>
<feColorMatrix in="SourceAlpha" type="matrix" values="0 0 0 0 0 0 0 0 0 0 0 0 0 0 0 0 0 0 127 0" result="hardAlpha"/>
<feOffset/>
<feGaussianBlur stdDeviation="0.466328"/>
<feComposite in2="hardAlpha" operator="arithmetic" k2="-1" k3="1"/>
<feColorMatrix type="matrix" values="0 0 0 0 0.548077 0 0 0 0 0.316198 0 0 0 0 0.00263499 0 0 0 1 0"/>
<feBlend mode="multiply" in2="shape" result="effect1_innerShadow_64_1894"/>
</filter>
<linearGradient id="paint0_linear_64_1894" x1="46.5718" y1="55.3964" x2="46.5718" y2="14.6509" gradientUnits="userSpaceOnUse">
<stop stop-color="#F49C1C"/>
<stop offset="1" stop-color="#B15402"/>
</linearGradient>
</defs>
</svg>
